<svg width="24" height="24" viewBox="0 0 24 24" fill="none" xmlns="http://www.w3.org/2000/svg">
<circle cx="12" cy="12" r="10" fill="url(#paint0_radial_1617_18622)"/>
<circle cx="12" cy="12" r="10" fill="url(#paint1_radial_1617_18622)"/>
<path d="M12.0005 4.91667C10.0768 4.91667 9.83534 4.92508 9.07978 4.95947C8.32569 4.994 7.81096 5.11338 7.36057 5.28855C6.89469 5.46947 6.4995 5.71149 6.10578 6.10536C5.71176 6.49908 5.46975 6.89427 5.28824 7.36C5.11263 7.81054 4.99309 8.32541 4.95915 9.07921C4.92536 9.83477 4.9165 10.0763 4.9165 12.0001C4.9165 13.9238 4.92506 14.1645 4.9593 14.9201C4.99398 15.6742 5.11336 16.1889 5.28838 16.6393C5.46945 17.1052 5.71147 17.5003 6.10534 17.8941C6.49891 18.2881 6.8941 18.5307 7.35969 18.7116C7.81037 18.8868 8.32525 19.0062 9.07919 19.0407C9.83475 19.0751 10.076 19.0835 11.9996 19.0835C13.9235 19.0835 14.1642 19.0751 14.9198 19.0407C15.6738 19.0062 16.1892 18.8868 16.6398 18.7116C17.1056 18.5307 17.5002 18.2881 17.8937 17.8941C18.2878 17.5003 18.5298 17.1052 18.7113 16.6394C18.8854 16.1889 19.005 15.674 19.0404 14.9202C19.0743 14.1647 19.0832 13.9238 19.0832 12.0001C19.0832 10.0763 19.0743 9.83492 19.0404 9.07935C19.005 8.32527 18.8854 7.81054 18.7113 7.36015C18.5298 6.89427 18.2878 6.49908 17.8937 6.10536C17.4997 5.71134 17.1057 5.46933 16.6394 5.28855C16.1878 5.11338 15.6728 4.994 14.9187 4.95947C14.1632 4.92508 13.9226 4.91667 11.9983 4.91667H12.0005ZM11.3651 6.19316C11.5537 6.19287 11.7641 6.19316 12.0005 6.19316C13.8918 6.19316 14.1159 6.19995 14.8628 6.23389C15.5534 6.26547 15.9283 6.38087 16.1779 6.47783C16.5085 6.60621 16.7442 6.75969 16.9919 7.00761C17.2399 7.25552 17.3933 7.49164 17.522 7.8222C17.619 8.07159 17.7345 8.44642 17.766 9.13705C17.7999 9.88376 17.8073 10.1081 17.8073 11.9985C17.8073 13.8888 17.7999 14.1131 17.766 14.8599C17.7344 15.5505 17.619 15.9253 17.522 16.1747C17.3936 16.5053 17.2399 16.7407 16.9919 16.9884C16.744 17.2363 16.5086 17.3898 16.1779 17.5182C15.9285 17.6156 15.5534 17.7307 14.8628 17.7623C14.1161 17.7962 13.8918 17.8036 12.0005 17.8036C10.1091 17.8036 9.88492 17.7962 9.13822 17.7623C8.44758 17.7304 8.07275 17.615 7.82291 17.5181C7.49236 17.3897 7.25624 17.2362 7.00832 16.9883C6.7604 16.7404 6.60693 16.5048 6.47825 16.1741C6.38129 15.9247 6.26575 15.5499 6.23431 14.8593C6.20037 14.1126 6.19358 13.8883 6.19358 11.9967C6.19358 10.1051 6.20037 9.88199 6.23431 9.13528C6.26589 8.44465 6.38129 8.06982 6.47825 7.82013C6.60663 7.48957 6.7604 7.25346 7.00832 7.00554C7.25624 6.75762 7.49236 6.60415 7.82291 6.47546C8.0726 6.37807 8.44758 6.26296 9.13822 6.23123C9.79166 6.20172 10.0449 6.19287 11.3651 6.19139V6.19316ZM15.7816 7.3693C15.3123 7.3693 14.9316 7.74959 14.9316 8.21902C14.9316 8.68829 15.3123 9.06902 15.7816 9.06902C16.2508 9.06902 16.6316 8.68829 16.6316 8.21902C16.6316 7.74974 16.2508 7.36901 15.7816 7.36901V7.3693ZM12.0005 8.36245C9.99162 8.36245 8.36288 9.9912 8.36288 12.0001C8.36288 14.009 9.99162 15.637 12.0005 15.637C14.0094 15.637 15.6375 14.009 15.6375 12.0001C15.6375 9.9912 14.0092 8.36245 12.0004 8.36245H12.0005ZM12.0005 9.63894C13.3044 9.63894 14.3616 10.696 14.3616 12.0001C14.3616 13.304 13.3044 14.3612 12.0005 14.3612C10.6964 14.3612 9.63937 13.304 9.63937 12.0001C9.63937 10.696 10.6964 9.63894 12.0005 9.63894Z" fill="white"/>
<defs>
<radialGradient id="paint0_radial_1617_18622" cx="0" cy="0" r="1" gradientUnits="userSpaceOnUse" gradientTransform="translate(7.31253 23.5404) rotate(-90) scale(19.8215 18.4355)">
<stop stop-color="#FFDD55"/>
<stop offset="0.1" stop-color="#FFDD55"/>
<stop offset="0.5" stop-color="#FF543E"/>
<stop offset="1" stop-color="#C837AB"/>
</radialGradient>
<radialGradient id="paint1_radial_1617_18622" cx="0" cy="0" r="1" gradientUnits="userSpaceOnUse" gradientTransform="translate(-1.35011 3.44077) rotate(78.6806) scale(8.86028 36.5225)">
<stop stop-color="#3771C8"/>
<stop offset="0.128" stop-color="#3771C8"/>
<stop offset="1" stop-color="#6600FF" stop-opacity="0"/>
</radialGradient>
</defs>
</svg>
