<svg width="24" height="24" viewBox="0 0 24 24" fill="none" xmlns="http://www.w3.org/2000/svg">
<path d="M9.97607 11.2266L15.3804 8.44019L9.97607 5.63435V11.2266Z" fill="white"/>
<path opacity="0.12" d="M9.97607 5.63435L14.7147 8.78313L15.3804 8.44019L9.97607 5.63435Z" fill="#420000"/>
<path d="M21.8003 8.02018C21.8003 8.02018 21.6045 6.64843 21.0053 6.0444C20.2455 5.25136 19.3918 5.24746 19.0022 5.2007C16.2021 5 12.0039 5 12.0039 5H11.9961C11.9961 5 7.79792 5 4.99785 5.2007C4.60818 5.24746 3.75445 5.25136 2.99471 6.0444C2.39554 6.64843 2.19973 8.02018 2.19973 8.02018C2.19973 8.02018 2 9.62965 2 11.2411V12.7511C2 14.3626 2.19973 15.972 2.19973 15.972C2.19973 15.972 2.39554 17.3438 2.99471 17.9478C3.75641 18.7408 4.75504 18.7155 5.19953 18.7993C6.79929 18.9513 12 19 12 19C12 19 16.2021 18.9942 19.0022 18.7915C19.3938 18.7447 20.2455 18.7408 21.0053 17.9478C21.6045 17.3438 21.8003 15.972 21.8003 15.972C21.8003 15.972 22 14.3606 22 12.7511V11.2411C22 9.62965 21.8003 8.02018 21.8003 8.02018ZM9.93421 14.5808V8.98859L15.3386 11.7944L9.93421 14.5808Z" fill="url(#paint0_linear_1617_18618)"/>
<defs>
<linearGradient id="paint0_linear_1617_18618" x1="12" y1="5" x2="12" y2="19" gradientUnits="userSpaceOnUse">
<stop stop-color="#E52D27"/>
<stop offset="1" stop-color="#BF171D"/>
</linearGradient>
</defs>
</svg>
