<svg width="25" height="25" viewBox="0 0 25 25" fill="none" xmlns="http://www.w3.org/2000/svg">
<path fill-rule="evenodd" clip-rule="evenodd" d="M12.0088 5.50146C12.5611 5.50146 13.0088 5.94918 13.0088 6.50146L13.0088 14.5015C13.0088 15.0537 12.5611 15.5015 12.0088 15.5015C11.4565 15.5015 11.0088 15.0538 11.0088 14.5015L11.0088 6.50146C11.0088 5.94918 11.4565 5.50146 12.0088 5.50146Z" fill="black"/>
<path d="M13.0088 18.0015C13.0088 18.5537 12.5611 19.0015 12.0088 19.0015C11.4565 19.0015 11.0088 18.5537 11.0088 18.0015C11.0088 17.4492 11.4565 17.0015 12.0088 17.0015C12.5611 17.0015 13.0088 17.4492 13.0088 18.0015Z" fill="black"/>
<path fill-rule="evenodd" clip-rule="evenodd" d="M12.0088 19.0015C12.5611 19.0015 13.0088 18.5537 13.0088 18.0015C13.0088 17.4492 12.5611 17.0015 12.0088 17.0015C11.4565 17.0015 11.0088 17.4492 11.0088 18.0015C11.0088 18.5537 11.4565 19.0015 12.0088 19.0015Z" fill="black"/>
</svg>
