<svg width="25" height="25" viewBox="0 0 25 25" fill="none" xmlns="http://www.w3.org/2000/svg">
<path fill-rule="evenodd" clip-rule="evenodd" d="M12.0088 20.0029C16.4271 20.0029 20.0088 16.4212 20.0088 12.0029C20.0088 7.58465 16.4271 4.00293 12.0088 4.00293C7.59051 4.00293 4.00879 7.58465 4.00879 12.0029C4.00879 16.4212 7.59051 20.0029 12.0088 20.0029ZM12.0088 22.0029C17.5316 22.0029 22.0088 17.5258 22.0088 12.0029C22.0088 6.48008 17.5316 2.00293 12.0088 2.00293C6.48594 2.00293 2.00879 6.48008 2.00879 12.0029C2.00879 17.5258 6.48594 22.0029 12.0088 22.0029Z" fill="black"/>
<path fill-rule="evenodd" clip-rule="evenodd" d="M11.2944 8.14581C11.8467 8.14581 12.2944 8.59353 12.2944 9.14581V12.4315H15.5801C16.1324 12.4315 16.5801 12.8792 16.5801 13.4315C16.5801 13.9838 16.1324 14.4315 15.5801 14.4315H11.2944C10.7421 14.4315 10.2944 13.9838 10.2944 13.4315V9.14581C10.2944 8.59353 10.7421 8.14581 11.2944 8.14581Z" fill="black"/>
</svg>
