<svg width="24" height="24" viewBox="0 0 24 24" fill="none" xmlns="http://www.w3.org/2000/svg">
<path fill-rule="evenodd" clip-rule="evenodd" d="M19.7071 4.29289C20.0976 4.68342 20.0976 5.31658 19.7071 5.70711L5.70711 19.7071C5.31658 20.0976 4.68342 20.0976 4.29289 19.7071C3.90237 19.3165 3.90237 18.6834 4.29289 18.2928L18.2929 4.29289C18.6834 3.90237 19.3166 3.90237 19.7071 4.29289Z" fill="black"/>
<path fill-rule="evenodd" clip-rule="evenodd" d="M19.707 19.707C19.3164 20.0975 18.6833 20.0975 18.2927 19.707L4.29274 5.70704C3.90221 5.31652 3.90221 4.68336 4.29274 4.29283C4.68326 3.90231 5.31643 3.90231 5.70696 4.29283L19.707 18.2928C20.0975 18.6833 20.0975 19.3165 19.707 19.707Z" fill="black"/>
</svg>
