<svg width="24" height="25" viewBox="0 0 24 25" fill="none" xmlns="http://www.w3.org/2000/svg">
<path fill-rule="evenodd" clip-rule="evenodd" d="M8.625 3.00293C9.17728 3.00293 9.625 3.45064 9.625 4.00293V8.00293C9.625 8.55521 9.17728 9.00293 8.625 9.00293C8.07272 9.00293 7.625 8.55521 7.625 8.00293V4.00293C7.625 3.45064 8.07272 3.00293 8.625 3.00293Z" fill="black"/>
<path fill-rule="evenodd" clip-rule="evenodd" d="M15.375 3.00293C15.9273 3.00293 16.375 3.45064 16.375 4.00293V8.00293C16.375 8.55521 15.9273 9.00293 15.375 9.00293C14.8227 9.00293 14.375 8.55521 14.375 8.00293V4.00293C14.375 3.45064 14.8227 3.00293 15.375 3.00293Z" fill="black"/>
<path fill-rule="evenodd" clip-rule="evenodd" d="M18 7.00293H6C4.89543 7.00293 4 7.89836 4 9.00293V17.0029C4 18.1075 4.89543 19.0029 6 19.0029H18C19.1046 19.0029 20 18.1075 20 17.0029V9.00293C20 7.89836 19.1046 7.00293 18 7.00293ZM6 5.00293C3.79086 5.00293 2 6.79379 2 9.00293V17.0029C2 19.2121 3.79086 21.0029 6 21.0029H18C20.2091 21.0029 22 19.2121 22 17.0029V9.00293C22 6.79379 20.2091 5.00293 18 5.00293H6Z" fill="black"/>
</svg>
