<svg width="24" height="24" viewBox="0 0 24 24" fill="none" xmlns="http://www.w3.org/2000/svg">
<rect x="8.5" y="13" width="3" height="8" rx="1.5" fill="#B094FF"/>
<path d="M9.5 6.5L13.4379 4.74982C15.4498 3.85566 16.4557 3.40858 17.237 3.71826C17.4843 3.81631 17.7096 3.96273 17.8997 4.14895C18.5 4.73711 18.5 5.83792 18.5 8.03954V13.5053C18.5 15.5154 18.5 16.5205 17.9538 17.0987C17.78 17.2826 17.5728 17.4319 17.3433 17.5387C16.6221 17.874 15.6686 17.5562 13.7616 16.9205L9.5 15.5V6.5Z" fill="#D0C0FF"/>
<path d="M5.5 10.1C5.5 8.60011 5.5 7.85016 5.88197 7.32443C6.00533 7.15464 6.15464 7.00533 6.32443 6.88197C6.85016 6.5 7.60011 6.5 9.1 6.5H9.5V15.5H9.1C7.60011 15.5 6.85016 15.5 6.32443 15.118C6.15464 14.9947 6.00533 14.8454 5.88197 14.6756C5.5 14.1498 5.5 13.3999 5.5 11.9V10.1Z" fill="#6A36FF"/>
</svg>
