<svg width="24" height="25" viewBox="0 0 24 25" fill="none" xmlns="http://www.w3.org/2000/svg">
<path fill-rule="evenodd" clip-rule="evenodd" d="M13.4545 2.96139C12.659 1.81397 10.9625 1.81396 10.1671 2.96139L8.90892 4.77637C8.56836 5.26764 8.02591 5.58083 7.43017 5.63012L5.22927 5.81224C3.83786 5.92738 2.98959 7.39663 3.58559 8.65919L4.52832 10.6563C4.78349 11.1969 4.78349 11.8232 4.52832 12.3638L3.58559 14.3609C2.98959 15.6235 3.83786 17.0927 5.22927 17.2078L7.43017 17.39C8.02591 17.4392 8.56836 17.7524 8.90892 18.2437L10.1671 20.0587C10.9625 21.2061 12.659 21.2061 13.4545 20.0587L14.7126 18.2437C15.0532 17.7524 15.5956 17.4392 16.1914 17.39L18.3923 17.2078C19.7837 17.0927 20.632 15.6235 20.036 14.3609L19.0932 12.3638C18.8381 11.8232 18.8381 11.1969 19.0932 10.6563L20.036 8.65919C20.632 7.39663 19.7837 5.92738 18.3923 5.81224L16.1914 5.63012C15.5956 5.58083 15.0532 5.26764 14.7126 4.77637L13.4545 2.96139ZM11.8108 15.8779C14.2231 15.8779 16.1787 13.9224 16.1787 11.51C16.1787 9.09772 14.2231 7.14214 11.8108 7.14214C9.39845 7.14214 7.44288 9.09772 7.44288 11.51C7.44288 13.9224 9.39845 15.8779 11.8108 15.8779Z" fill="black"/>
</svg>
