<svg width="24" height="24" viewBox="0 0 24 24" fill="none" xmlns="http://www.w3.org/2000/svg">
<path d="M10.35 21.9C5.6 21.05 2 16.95 2 12C2 6.5 6.5 2 12 2C17.5 2 22 6.5 22 12C22 16.95 18.4 21.05 13.65 21.9L13.1 21.45H10.9L10.35 21.9Z" fill="#1877F2"/>
<path d="M15.8999 14.8001L16.3499 12.0001H13.6999V10.0501C13.6999 9.25015 13.9999 8.65015 15.1999 8.65015H16.4999V6.10015C15.7999 6.00015 14.9999 5.90015 14.2999 5.90015C11.9999 5.90015 10.3999 7.30015 10.3999 9.80015V12.0001H7.8999V14.8001H10.3999V21.8501C10.9499 21.9501 11.4999 22.0001 12.0499 22.0001C12.5999 22.0001 13.1499 21.9501 13.6999 21.8501V14.8001H15.8999Z" fill="white"/>
</svg>
