<svg width="24" height="24" viewBox="0 0 24 24" fill="none" xmlns="http://www.w3.org/2000/svg">
<path d="M4.5 6.16667H19.5L15.3333 19.0833H8.66667L4.5 6.16667Z" fill="white"/>
<path d="M12 2C6.47712 2 2 6.47712 2 12C2 17.5229 6.47712 22 12 22C17.5229 22 22 17.5229 22 12C22 6.47712 17.5229 2 12 2ZM7.67364 10.342C7.33261 10.3421 6.99921 10.2411 6.71561 10.0517C6.43202 9.86228 6.21096 9.59303 6.08039 9.27798C5.94982 8.96294 5.91562 8.61625 5.9821 8.28176C6.04857 7.94727 6.21275 7.64001 6.45387 7.39884C6.69498 7.15766 7.0022 6.99341 7.33667 6.92684C7.67114 6.86028 8.01784 6.8944 8.33292 7.02489C8.648 7.15537 8.9173 7.37637 9.10678 7.65991C9.29625 7.94346 9.39739 8.27684 9.39739 8.61787C9.39727 9.07504 9.21564 9.51346 8.89241 9.83677C8.56918 10.1601 8.13081 10.3418 7.67364 10.342ZM12 18.9935C11.6591 18.9935 11.3258 18.8924 11.0423 18.703C10.7589 18.5136 10.5379 18.2443 10.4075 17.9294C10.277 17.6144 10.2429 17.2678 10.3094 16.9334C10.3759 16.5991 10.5401 16.2919 10.7811 16.0508C11.0222 15.8098 11.3293 15.6456 11.6637 15.5791C11.9981 15.5126 12.3447 15.5467 12.6596 15.6772C12.9746 15.8076 13.2438 16.0286 13.4332 16.3121C13.6227 16.5955 13.7237 16.9288 13.7237 17.2697C13.7237 17.7269 13.5421 18.1653 13.2189 18.4886C12.8956 18.8119 12.4572 18.9935 12 18.9935ZM12 14.6671C11.6591 14.6671 11.3258 14.566 11.0423 14.3766C10.7589 14.1872 10.5379 13.918 10.4075 13.603C10.277 13.288 10.2429 12.9414 10.3094 12.6071C10.3759 12.2727 10.5401 11.9656 10.7811 11.7245C11.0222 11.4834 11.3293 11.3192 11.6637 11.2527C11.9981 11.1862 12.3447 11.2204 12.6596 11.3508C12.9746 11.4813 13.2438 11.7022 13.4332 11.9857C13.6227 12.2692 13.7237 12.6024 13.7237 12.9434C13.7239 13.1698 13.6795 13.3941 13.5929 13.6034C13.5064 13.8127 13.3794 14.0029 13.2193 14.1631C13.0593 14.3233 12.8692 14.4504 12.66 14.5371C12.4507 14.6238 12.2265 14.6684 12 14.6684V14.6671ZM12 10.3407C11.659 10.3408 11.3256 10.2398 11.042 10.0504C10.7584 9.86097 10.5373 9.59172 10.4068 9.27668C10.2762 8.96163 10.242 8.61494 10.3085 8.28045C10.3749 7.94597 10.5391 7.63871 10.7802 7.39753C11.0213 7.15636 11.3286 6.9921 11.663 6.92554C11.9975 6.85897 12.3442 6.89309 12.6593 7.02358C12.9744 7.15407 13.2437 7.37506 13.4331 7.65861C13.6226 7.94216 13.7237 8.27553 13.7237 8.61656C13.7239 8.84305 13.6795 9.06736 13.5929 9.27667C13.5064 9.48598 13.3794 9.67619 13.2194 9.83643C13.0593 9.99667 12.8692 10.1238 12.66 10.2106C12.4508 10.2973 12.2265 10.342 12 10.342V10.3407ZM16.3264 10.3407C15.9854 10.3407 15.652 10.2396 15.3685 10.0502C15.0849 9.86071 14.8639 9.59143 14.7334 9.27637C14.6029 8.96132 14.5688 8.61465 14.6353 8.28019C14.7018 7.94573 14.866 7.63851 15.1072 7.39738C15.3483 7.15624 15.6555 6.99203 15.99 6.9255C16.3244 6.85898 16.6711 6.89312 16.9862 7.02362C17.3012 7.15412 17.5705 7.37511 17.76 7.65865C17.9494 7.94219 18.0505 8.27555 18.0505 8.61656C18.0507 8.84309 18.0062 9.06744 17.9197 9.27678C17.8331 9.48611 17.7061 9.67634 17.546 9.83658C17.3859 9.99683 17.1958 10.1239 16.9865 10.2107C16.7772 10.2974 16.5529 10.342 16.3264 10.342V10.3407Z" fill="#EE5205"/>
</svg>
