<svg width="24" height="25" viewBox="0 0 24 25" fill="none" xmlns="http://www.w3.org/2000/svg">
<circle cx="12" cy="7.00293" r="5" stroke="black" stroke-width="2"/>
<path fill-rule="evenodd" clip-rule="evenodd" d="M12.0001 17.0029C10.8289 17.0029 9.48663 17.0512 8.23594 17.1142C6.31197 17.211 4.76668 18.7435 4.60848 20.7013L4.4968 22.0835C4.45232 22.634 3.97 23.0442 3.41951 22.9997C2.86902 22.9552 2.45882 22.4729 2.5033 21.9224L2.61498 20.5402C2.85095 17.62 5.17149 15.2659 8.13535 15.1167C9.40145 15.0529 10.7811 15.0029 12.0001 15.0029C13.219 15.0029 14.5987 15.0529 15.8648 15.1167C18.8286 15.2659 21.1492 17.62 21.3851 20.5402L21.4968 21.9224C21.5413 22.4729 21.1311 22.9552 20.5806 22.9997C20.0301 23.0442 19.5478 22.634 19.5033 22.0835L19.3916 20.7013C19.2334 18.7435 17.6881 17.211 15.7642 17.1142C14.5135 17.0512 13.1712 17.0029 12.0001 17.0029Z" fill="black"/>
</svg>
