<svg width="24" height="25" viewBox="0 0 24 25" fill="none" xmlns="http://www.w3.org/2000/svg">
<circle cx="12" cy="7.00293" r="5" stroke="black" stroke-width="2"/>
<path d="M2.50325 21.9224C2.45877 22.4729 2.86897 22.9552 3.41946 22.9997C3.96995 23.0442 4.45227 22.634 4.49675 22.0835L2.50325 21.9224ZM19.5032 22.0835C19.5477 22.634 20.03 23.0442 20.5805 22.9997C21.131 22.9552 21.5412 22.4729 21.4968 21.9224L19.5032 22.0835ZM20.3883 20.6208L19.3916 20.7013L20.3883 20.6208ZM8.18559 16.1154L8.23588 17.1142L8.18559 16.1154ZM4.49675 22.0835L4.60843 20.7013L2.61493 20.5402L2.50325 21.9224L4.49675 22.0835ZM19.3916 20.7013L19.5032 22.0835L21.4968 21.9224L21.3851 20.5402L19.3916 20.7013ZM8.23588 17.1142C9.48658 17.0512 10.8289 17.0029 12 17.0029V15.0029C10.7811 15.0029 9.40139 15.0529 8.1353 15.1167L8.23588 17.1142ZM12 17.0029C13.1711 17.0029 14.5134 17.0512 15.7641 17.1142L15.8647 15.1167C14.5986 15.0529 13.2189 15.0029 12 15.0029V17.0029ZM21.3851 20.5402C21.1491 17.62 18.8286 15.2659 15.8647 15.1167L15.7641 17.1142C17.6881 17.211 19.2334 18.7435 19.3916 20.7013L21.3851 20.5402ZM4.60843 20.7013C4.76663 18.7435 6.31192 17.211 8.23588 17.1142L8.1353 15.1167C5.17144 15.2659 2.8509 17.62 2.61493 20.5402L4.60843 20.7013Z" fill="black"/>
</svg>
