<svg width="24" height="25" viewBox="0 0 24 25" fill="none" xmlns="http://www.w3.org/2000/svg">
<path fill-rule="evenodd" clip-rule="evenodd" d="M15.3 4.00293H8.7C7.15556 4.00293 6.15788 4.00567 5.40923 4.08679C4.69802 4.16384 4.4524 4.29192 4.32443 4.3849C4.15464 4.50826 4.00533 4.65757 3.88197 4.82736C3.78899 4.95533 3.66091 5.20095 3.58386 5.91216C3.50275 6.66081 3.5 7.65849 3.5 9.20293V9.80293C3.5 11.3474 3.50275 12.3451 3.58386 13.0937C3.66091 13.8049 3.78899 14.0505 3.88197 14.1785C4.00533 14.3483 4.15464 14.4976 4.32443 14.621C4.4524 14.7139 4.69802 14.842 5.40923 14.9191C6.15788 15.0002 7.15556 15.0029 8.7 15.0029H15.3C16.8444 15.0029 17.8421 15.0002 18.5908 14.9191C19.302 14.842 19.5476 14.7139 19.6756 14.621C19.8454 14.4976 19.9947 14.3483 20.118 14.1785C20.211 14.0505 20.3391 13.8049 20.4161 13.0937C20.4973 12.3451 20.5 11.3474 20.5 9.80293V9.20293C20.5 7.65849 20.4973 6.66081 20.4161 5.91216C20.3391 5.20095 20.211 4.95533 20.118 4.82736C19.9947 4.65757 19.8454 4.50826 19.6756 4.3849C19.5476 4.29192 19.302 4.16384 18.5908 4.08679C17.8421 4.00567 16.8444 4.00293 15.3 4.00293ZM2.26393 3.65179C1.5 4.70325 1.5 6.20314 1.5 9.20293V9.80293C1.5 12.8027 1.5 14.3026 2.26393 15.3541C2.51065 15.6936 2.80928 15.9923 3.14886 16.239C4.20032 17.0029 5.70021 17.0029 8.7 17.0029H15.3C18.2998 17.0029 19.7997 17.0029 20.8511 16.239C21.1907 15.9923 21.4893 15.6936 21.7361 15.3541C22.5 14.3026 22.5 12.8027 22.5 9.80293V9.20293C22.5 6.20314 22.5 4.70325 21.7361 3.65179C21.4893 3.31221 21.1907 3.01358 20.8511 2.76686C19.7997 2.00293 18.2998 2.00293 15.3 2.00293H8.7C5.70021 2.00293 4.20032 2.00293 3.14886 2.76686C2.80928 3.01358 2.51065 3.31221 2.26393 3.65179Z" fill="black"/>
<path fill-rule="evenodd" clip-rule="evenodd" d="M11.348 18.2064C11.7021 17.9377 12.191 17.9349 12.5481 18.1996L16.5955 21.1996C17.0392 21.5284 17.1323 22.1547 16.8034 22.5984C16.4746 23.0421 15.8483 23.1352 15.4046 22.8063L11.9597 20.2529L8.60463 22.7995C8.16471 23.1334 7.53741 23.0474 7.20351 22.6075C6.86961 22.1676 6.95556 21.5403 7.39548 21.2064L11.348 18.2064Z" fill="black"/>
<path fill-rule="evenodd" clip-rule="evenodd" d="M12 16.0029C12.5523 16.0029 13 16.4506 13 17.0029V19.0029C13 19.5552 12.5523 20.0029 12 20.0029C11.4477 20.0029 11 19.5552 11 19.0029V17.0029C11 16.4506 11.4477 16.0029 12 16.0029Z" fill="black"/>
</svg>
