<svg width="24" height="25" viewBox="0 0 24 25" fill="none" xmlns="http://www.w3.org/2000/svg">
<path fill-rule="evenodd" clip-rule="evenodd" d="M12 21.0029C16.9706 21.0029 21 16.9735 21 12.0029C21 7.03237 16.9706 3.00293 12 3.00293C7.02944 3.00293 3 7.03237 3 12.0029C3 16.9735 7.02944 21.0029 12 21.0029ZM11.0962 13.5696V13.4511C11.1015 12.1106 11.4556 11.7014 12.0899 11.2977C12.5444 10.9962 12.8985 10.6624 12.8932 10.1671C12.8985 9.62877 12.4863 9.27884 11.9736 9.27345C11.482 9.27884 11.0222 9.61262 11.0011 10.2425H9.5C9.52643 8.72971 10.6311 8.00293 11.9841 8.00293C13.4588 8.00293 14.5 8.78355 14.5 10.1133C14.5 11.0016 14.0507 11.5615 13.3584 11.9868C12.7611 12.3475 12.4968 12.6974 12.4915 13.4511V13.5696H11.0962ZM11.8256 16.0029C11.3288 16.0029 10.9271 15.5992 10.9376 15.0985C10.9271 14.6032 11.3288 14.1994 11.8256 14.2048C12.296 14.1994 12.703 14.6032 12.703 15.0985C12.703 15.5992 12.296 16.0029 11.8256 16.0029Z" fill="black"/>
</svg>
