<svg width="24" height="25" viewBox="0 0 24 25" fill="none" xmlns="http://www.w3.org/2000/svg">
<path d="M8 3.00293H7.5C5.62513 3.00293 4.6877 3.00293 4.03054 3.48039C3.8183 3.63459 3.63166 3.82123 3.47746 4.03347C3 4.69063 3 5.62806 3 7.50293V8.00293" stroke="black" stroke-width="2" stroke-linecap="round" stroke-linejoin="round"/>
<path d="M8 21.0029H7.5C5.62513 21.0029 4.6877 21.0029 4.03054 20.5255C3.8183 20.3713 3.63166 20.1846 3.47746 19.9724C3 19.3152 3 18.3778 3 16.5029V16.0029" stroke="black" stroke-width="2" stroke-linecap="round" stroke-linejoin="round"/>
<path d="M21 8.00293L21 7.50293C21 5.62806 21 4.69063 20.5225 4.03347C20.3683 3.82123 20.1817 3.63459 19.9695 3.48039C19.3123 3.00293 18.3749 3.00293 16.5 3.00293L16 3.00293" stroke="black" stroke-width="2" stroke-linecap="round" stroke-linejoin="round"/>
<path d="M21 16.0029L21 16.5029C21 18.3778 21 19.3152 20.5225 19.9724C20.3683 20.1846 20.1817 20.3713 19.9695 20.5255C19.3123 21.0029 18.3749 21.0029 16.5 21.0029L16 21.0029" stroke="black" stroke-width="2" stroke-linecap="round" stroke-linejoin="round"/>
<path d="M5 12.0029H19" stroke="black" stroke-width="2" stroke-linecap="round" stroke-linejoin="round"/>
</svg>
