<svg width="24" height="25" viewBox="0 0 24 25" fill="none" xmlns="http://www.w3.org/2000/svg">
<path fill-rule="evenodd" clip-rule="evenodd" d="M7.44587 2.00293L8 2.00293C8.55229 2.00293 9 2.45065 9 3.00293C9 3.55522 8.55229 4.00293 8 4.00293H7.5C6.54029 4.00293 5.90084 4.0043 5.41635 4.0568C4.95057 4.10726 4.74803 4.19517 4.61832 4.28941C4.49098 4.38193 4.379 4.49391 4.28648 4.62125C4.19224 4.75096 4.10433 4.9535 4.05387 5.41927C4.00137 5.90377 4 6.54322 4 7.50293V8.00293C4 8.55522 3.55229 9.00293 3 9.00293C2.44772 9.00293 2 8.55522 2 8.00293L2 7.4488C1.99997 6.5575 1.99995 5.80887 2.0655 5.20385C2.1344 4.5679 2.28522 3.97315 2.66844 3.44568C2.88432 3.14855 3.14562 2.88725 3.44275 2.67137C3.97022 2.28815 4.56497 2.13733 5.20092 2.06843C5.80594 2.00288 6.55457 2.0029 7.44587 2.00293Z" fill="black"/>
<path fill-rule="evenodd" clip-rule="evenodd" d="M7.44587 22.0029L8 22.0029C8.55229 22.0029 9 21.5552 9 21.0029C9 20.4506 8.55229 20.0029 8 20.0029H7.5C6.54029 20.0029 5.90084 20.0016 5.41635 19.9491C4.95057 19.8986 4.74803 19.8107 4.61832 19.7165C4.49098 19.6239 4.379 19.5119 4.28648 19.3846C4.19224 19.2549 4.10433 19.0524 4.05387 18.5866C4.00137 18.1021 4 17.4626 4 16.5029V16.0029C4 15.4506 3.55229 15.0029 3 15.0029C2.44772 15.0029 2 15.4506 2 16.0029L2 16.5571C1.99997 17.4484 1.99995 18.197 2.0655 18.802C2.1344 19.438 2.28522 20.0327 2.66844 20.5602C2.88432 20.8573 3.14562 21.1186 3.44275 21.3345C3.97022 21.7177 4.56497 21.8685 5.20092 21.9374C5.80594 22.003 6.55457 22.003 7.44587 22.0029Z" fill="black"/>
<path fill-rule="evenodd" clip-rule="evenodd" d="M22 7.4488L22 8.00293C22 8.55522 21.5523 9.00293 21 9.00293C20.4477 9.00293 20 8.55522 20 8.00293L20 7.50293C20 6.54322 19.9986 5.90377 19.9461 5.41927C19.8957 4.9535 19.8078 4.75096 19.7135 4.62125C19.621 4.49391 19.509 4.38193 19.3817 4.28941C19.252 4.19517 19.0494 4.10726 18.5837 4.0568C18.0992 4.0043 17.4597 4.00293 16.5 4.00293L16 4.00293C15.4477 4.00293 15 3.55522 15 3.00293C15 2.45065 15.4477 2.00293 16 2.00293L16.5541 2.00293C17.4454 2.0029 18.1941 2.00288 18.7991 2.06843C19.435 2.13733 20.0298 2.28815 20.5572 2.67137C20.8544 2.88725 21.1157 3.14855 21.3316 3.44568C21.7148 3.97314 21.8656 4.5679 21.9345 5.20385C22 5.80887 22 6.5575 22 7.4488Z" fill="black"/>
<path fill-rule="evenodd" clip-rule="evenodd" d="M22 16.5571L22 16.0029C22 15.4506 21.5523 15.0029 21 15.0029C20.4477 15.0029 20 15.4506 20 16.0029L20 16.5029C20 17.4626 19.9986 18.1021 19.9461 18.5866C19.8957 19.0524 19.8078 19.2549 19.7135 19.3846C19.621 19.5119 19.509 19.6239 19.3817 19.7165C19.252 19.8107 19.0494 19.8986 18.5837 19.9491C18.0992 20.0016 17.4597 20.0029 16.5 20.0029L16 20.0029C15.4477 20.0029 15 20.4506 15 21.0029C15 21.5552 15.4477 22.0029 16 22.0029L16.5541 22.0029C17.4454 22.003 18.1941 22.003 18.7991 21.9374C19.435 21.8685 20.0298 21.7177 20.5572 21.3345C20.8544 21.1186 21.1157 20.8573 21.3316 20.5602C21.7148 20.0327 21.8656 19.438 21.9345 18.802C22 18.197 22 17.4484 22 16.5571Z" fill="black"/>
<path fill-rule="evenodd" clip-rule="evenodd" d="M4 12.0029C4 11.4506 4.44772 11.0029 5 11.0029H19C19.5523 11.0029 20 11.4506 20 12.0029C20 12.5552 19.5523 13.0029 19 13.0029H5C4.44772 13.0029 4 12.5552 4 12.0029Z" fill="black"/>
</svg>
